<svg fill="none" xmlns="http://www.w3.org/2000/svg" viewBox="0.5 0.5 91 71"> <path d="M3 37.3669C4.74866 37.3669 15.9 37.3669 18.4122 37.3669C20.3433 37.3669 20.3433 34.4504 20.3433 32.7V19.5C20.3433 17.7496 21.038 16.0708 22.2745 14.8331C23.511 13.5954 25.188 12.9 26.9367 12.9C28.6853 12.9 30.3624 13.5954 31.5989 14.8331C32.8353 16.0708 33.53 17.7496 33.53 19.5V62.4C33.53 64.1504 34.2246 65.8292 35.4611 67.0669C36.6976 68.3046 38.3747 69 40.1233 69C41.872 69 43.549 68.3046 44.7855 67.0669C46.022 65.8292 46.7167 64.1504 46.7167 62.4V9.6C46.7167 7.84957 47.4113 6.17083 48.6478 4.93309C49.8843 3.69535 51.5613 3 53.31 3C55.0587 3 56.7357 3.69535 57.9722 4.93309C59.2087 6.17083 59.9033 7.84957 59.9033 9.6V52.5C59.9033 54.2504 60.598 55.9292 61.8345 57.1669C63.071 58.4046 64.748 59.1 66.4967 59.1C68.2453 59.1 69.9224 58.4046 71.1589 57.1669C72.3953 55.9292 73.09 54.2504 73.09 52.5V39.3C73.09 37.5496 72.5167 34.6331 75.0211 34.6331C77.5256 34.6331 87.2513 34.6331 89 34.6331" stroke="url(#paint0_linear_1_13)" stroke-width="5" stroke-linecap="round" stroke-linejoin="round"></path> <defs> <linearGradient id="paint0_linear_1_13" x1="46" y1="3" x2="46" y2="69" gradientUnits="userSpaceOnUse"> <stop stop-color="#FF8C42"></stop> <stop offset="1" stop-color="#62BFAD"></stop> </linearGradient> </defs> </svg>