<svg width="762" height="72" viewBox="0 0 762 72" fill="none" xmlns="http://www.w3.org/2000/svg">
<path d="M119.344 49.568C122.288 49.568 124.549 48.8213 126.128 47.328C127.749 45.8347 128.56 44.0213 128.56 41.888C128.56 39.7547 127.771 37.9413 126.192 36.448C124.656 34.912 122.757 33.5893 120.496 32.48C118.277 31.3707 116.037 30.2187 113.776 29.024C111.557 27.8293 109.659 26.2507 108.08 24.288C106.544 22.2827 105.776 19.9573 105.776 17.312C105.776 13.5147 107.141 10.656 109.872 8.73598C112.603 6.77332 115.845 5.79198 119.6 5.79198C124.421 5.79198 128.56 6.60265 132.016 8.22399C132.315 8.86399 132.464 10.5493 132.464 13.28C132.464 15.968 132.379 17.9947 132.208 19.36L130.224 19.232C130.053 16.2453 129.008 13.7707 127.088 11.808C125.211 9.80265 122.651 8.79999 119.408 8.79999C117.104 8.79999 115.205 9.39732 113.712 10.592C112.261 11.744 111.536 13.3653 111.536 15.456C111.536 17.9307 113.051 20.0853 116.08 21.92C117.403 22.7307 118.875 23.5413 120.496 24.352C122.117 25.1627 123.739 26.0373 125.36 26.976C126.981 27.872 128.453 28.8747 129.776 29.984C132.805 32.4587 134.32 35.616 134.32 39.456C134.32 43.2533 132.997 46.432 130.352 48.992C127.707 51.5093 124.208 52.768 119.856 52.768C115.504 52.768 110.981 51.8933 106.288 50.144C106.075 49.504 105.776 47.9253 105.392 45.408C105.008 42.848 104.731 40.6933 104.56 38.944L107.504 38.496C109.211 45.8773 113.157 49.568 119.344 49.568Z" fill="currentColor"/>
<path d="M148.581 43.872C148.581 45.7493 149.242 47.2213 150.565 48.288C151.888 49.3547 153.786 49.888 156.261 49.888C158.736 49.888 160.592 48.8853 161.829 46.88C163.066 44.832 163.685 42.1227 163.685 38.752C163.685 35.3387 162.874 32.5653 161.253 30.432C159.674 28.2987 157.712 27.232 155.365 27.232C153.018 27.232 150.757 28.128 148.581 29.92V43.872ZM146.661 68.32L139.365 68.512L138.853 65.952C140.901 65.7813 142.117 65.5893 142.501 65.376C142.928 65.2053 143.141 64.672 143.141 63.776V32.48C143.141 30.9867 142.842 29.9413 142.245 29.344C141.648 28.704 140.752 28.384 139.557 28.384L138.597 28.448L138.085 26.528C139.322 26.2293 140.965 25.7173 143.013 24.992C145.061 24.224 146.405 23.6267 147.045 23.2C147.77 23.2 148.176 23.3707 148.261 23.712V27.808C149.029 26.7413 150.224 25.8027 151.845 24.992C153.466 24.1387 155.28 23.712 157.285 23.712C160.954 23.712 163.898 24.9707 166.117 27.488C168.336 29.9627 169.445 33.1413 169.445 37.024C169.445 41.8453 168.272 45.6853 165.925 48.544C163.621 51.36 160.272 52.768 155.877 52.768C153.146 52.768 150.714 52.1707 148.581 50.976V63.776C148.581 64.544 148.901 65.0987 149.541 65.44C150.181 65.7813 151.504 65.952 153.509 65.952L154.085 68.512C154.085 68.512 151.61 68.448 146.661 68.32Z" fill="currentColor"/>
<path d="M180.131 37.408C180.131 40.736 180.942 43.6587 182.563 46.176C184.227 48.6507 186.446 49.888 189.219 49.888C192.035 49.888 194.104 48.928 195.427 47.008C196.792 45.088 197.475 42.4 197.475 38.944C197.475 35.4453 196.579 32.48 194.787 30.048C193.038 27.616 190.798 26.4 188.067 26.4C185.336 26.4 183.331 27.4027 182.051 29.408C180.771 31.3707 180.131 34.0373 180.131 37.408ZM188.643 52.768C184.462 52.768 181.027 51.488 178.339 48.928C175.651 46.3253 174.307 42.9333 174.307 38.752C174.307 34.528 175.672 30.9653 178.403 28.064C181.176 25.1627 184.654 23.712 188.835 23.712C193.059 23.712 196.515 25.0347 199.203 27.68C201.934 30.2827 203.299 33.696 203.299 37.92C203.299 42.1013 201.891 45.6213 199.075 48.48C196.302 51.3387 192.824 52.768 188.643 52.768Z" fill="currentColor"/>
<path d="M215.798 42.976C215.798 45.024 216.161 46.6027 216.886 47.712C217.611 48.7787 218.593 49.312 219.83 49.312C221.11 49.312 222.283 48.9707 223.35 48.288C223.521 48.2027 223.691 48.2453 223.862 48.416L225.014 50.144C222.667 51.8933 220.235 52.768 217.718 52.768C215.243 52.768 213.387 52 212.15 50.464C210.955 48.8853 210.358 47.0293 210.358 44.896V28.832C210.358 28.32 210.273 28 210.102 27.872C209.974 27.744 209.782 27.68 209.526 27.68H207.286L206.71 25.824C208.502 25.2693 209.953 24.3733 211.062 23.136C212.214 21.8987 213.323 20.2347 214.39 18.144H215.094C215.393 18.144 215.542 18.272 215.542 18.528L215.798 23.648C215.798 24.2027 216.075 24.48 216.63 24.48H223.926L224.502 27.68H216.502C216.075 27.68 215.862 28 215.862 28.64C215.862 28.6827 215.862 28.704 215.862 28.704V28.832L215.798 42.976Z" fill="currentColor"/>
<path d="M236.673 52L229.761 52.192L229.249 49.632C231.297 49.4613 232.513 49.2907 232.897 49.12C233.324 48.9067 233.537 48.352 233.537 47.456V31.2C233.537 29.0667 232.47 28 230.337 28C229.825 28 229.42 28.0213 229.121 28.064L228.545 26.208C231.318 25.5253 233.089 25.0347 233.857 24.736L237.761 23.2C238.316 23.2 238.657 23.264 238.785 23.392C238.913 23.4773 238.977 23.7547 238.977 24.224V47.456C238.977 48.224 239.169 48.7573 239.553 49.056C239.937 49.312 240.876 49.504 242.369 49.632L242.945 52.192L236.673 52ZM236.289 15.648C235.222 15.648 234.326 15.328 233.601 14.688C232.918 14.0053 232.577 13.1307 232.577 12.064C232.577 10.9973 232.94 10.08 233.665 9.31199C234.39 8.54398 235.286 8.15998 236.353 8.15998C237.462 8.15998 238.358 8.47999 239.041 9.11999C239.766 9.75999 240.129 10.6347 240.129 11.744C240.129 12.8107 239.745 13.728 238.977 14.496C238.252 15.264 237.356 15.648 236.289 15.648Z" fill="currentColor"/>
<path d="M263.231 52.128L256.319 51.936C256.276 51.936 253.759 52 248.767 52.128L248.255 49.568C250.303 49.3973 251.519 49.2267 251.903 49.056C252.33 48.8427 252.543 48.288 252.543 47.392V29.536C252.543 28.768 252.308 28.384 251.839 28.384H248.383C248.084 27.7867 247.935 27.1253 247.935 26.4C250.026 26.144 251.434 25.888 252.159 25.632C252.372 25.5893 252.479 25.312 252.479 24.8V23.392C252.479 15.584 254.719 9.88799 259.199 6.30399C261.588 4.34132 264.532 3.35999 268.031 3.35999C269.311 3.35999 270.612 3.65865 271.935 4.25599C273.258 4.81065 273.919 5.30132 273.919 5.72799C273.578 7.09332 272.852 8.60799 271.743 10.272C271.572 10.4427 271.359 10.528 271.103 10.528C268.031 8.47999 265.471 7.45599 263.423 7.45599C261.418 7.45599 259.988 8.43732 259.135 10.4C258.324 12.32 257.919 15.9893 257.919 21.408V24.544C257.919 25.0987 258.196 25.376 258.751 25.376L265.599 25.184C265.727 25.4827 265.791 25.888 265.791 26.4C265.791 26.8693 265.642 27.5307 265.343 28.384H258.623C258.196 28.384 257.983 28.704 257.983 29.344C257.983 29.3867 257.983 29.4293 257.983 29.472V47.392C257.983 48.1173 258.324 48.6293 259.007 48.928C259.732 49.2267 260.948 49.44 262.655 49.568L263.231 52.128Z" fill="currentColor"/>
<path d="M295.902 24.48L300.318 24.288L300.83 26.656H300.574C299.337 26.8267 298.419 27.168 297.822 27.68C297.267 28.1493 296.734 29.0453 296.222 30.368L283.294 61.088C281.374 65.056 279.582 67.488 277.918 68.384C277.022 68.8533 275.849 69.088 274.398 69.088C272.99 69.088 271.859 68.7253 271.006 68C271.006 67.4027 271.283 66.5067 271.838 65.312C272.393 64.16 272.755 63.584 272.926 63.584C273.566 63.712 274.59 63.776 275.998 63.776C277.449 63.776 278.921 62.496 280.414 59.936C281.907 57.376 283.166 54.6667 284.19 51.808L274.974 30.88C274.163 29.088 273.459 27.936 272.862 27.424C272.307 26.8693 271.369 26.592 270.046 26.592L269.47 24.224C271.689 24.3947 274.142 24.48 276.83 24.48C279.518 24.48 281.971 24.3947 284.19 24.224L284.702 26.528H284.446C281.587 26.5707 280.158 27.0827 280.158 28.064C280.158 28.448 280.286 28.896 280.542 29.408L286.878 45.344L293.47 29.28C293.726 28.6827 293.854 28.2773 293.854 28.064C293.854 27.2107 292.745 26.7627 290.526 26.72L289.95 24.288L295.902 24.48Z" fill="currentColor"/>
<path d="M315.607 6.36798L323.479 6.55999C329.111 6.38932 332.311 6.30399 333.079 6.30399C337.901 6.30399 341.762 7.26399 344.663 9.18399C347.607 11.104 349.079 14.24 349.079 18.592C349.079 22.944 347.479 26.208 344.279 28.384C341.079 30.5173 336.962 31.584 331.928 31.584C330.733 31.584 329.815 31.4773 329.175 31.264C328.663 30.8373 328.408 30.112 328.408 29.088C328.408 28.832 328.472 28.64 328.6 28.512C328.984 28.64 329.816 28.704 331.096 28.704C334.765 28.704 337.666 27.7867 339.799 25.952C341.933 24.1173 342.999 21.6213 342.999 18.464C342.999 15.264 342.018 12.9387 340.055 11.488C338.093 10.0373 335.469 9.31199 332.184 9.31199C329.41 9.31199 327.831 9.43999 327.447 9.69599C327.106 9.90932 326.936 10.144 326.936 10.4V46.304C326.936 47.584 327.362 48.416 328.215 48.8C329.111 49.184 330.967 49.376 333.783 49.376L334.423 52.128L325.591 52C325.037 52 321.943 52.064 316.311 52.192L315.799 49.376C318.189 49.12 319.64 48.8853 320.152 48.672C320.706 48.416 321.026 47.8187 321.111 46.88V11.68C321.111 10.8267 320.792 10.2507 320.152 9.95199C319.554 9.61065 318.232 9.35465 316.184 9.18399L315.607 6.36798Z" fill="currentColor"/>
<path d="M358.588 52L351.676 52.192L351.164 49.632C353.212 49.4613 354.428 49.2907 354.812 49.12C355.239 48.9067 355.452 48.352 355.452 47.456V12.256C355.452 10.848 355.196 9.88799 354.684 9.37599C354.215 8.86399 353.553 8.60799 352.7 8.60799C351.889 8.60799 351.335 8.62932 351.036 8.67199L350.46 6.75199C353.745 5.77065 356.839 4.63999 359.74 3.35999C360.508 3.35999 360.892 3.76532 360.892 4.57598V47.456C360.892 48.224 361.105 48.7573 361.532 49.056C361.959 49.312 362.919 49.504 364.412 49.632L364.988 52.192L358.588 52Z" fill="currentColor"/>
<path d="M379.495 49.184C381.671 49.184 383.292 48.4587 384.359 47.008V39.84C380.69 40.48 378.236 41.2053 376.999 42.016C375.762 42.784 375.143 43.8933 375.143 45.344C375.228 46.6667 375.676 47.648 376.487 48.288C377.298 48.8853 378.3 49.184 379.495 49.184ZM392.487 48.8H393.831C394.044 48.8 394.194 48.7787 394.279 48.736C394.45 49.8453 394.599 50.528 394.727 50.784C394.215 51.04 393.042 51.4453 391.207 52C389.415 52.512 388.092 52.768 387.239 52.768C386.386 52.768 385.788 52.4693 385.447 51.872C385.106 51.232 384.85 50.1227 384.679 48.544C383.954 49.568 382.866 50.5067 381.415 51.36C380.007 52.2133 378.578 52.6827 377.127 52.768H376.807C374.759 52.768 372.988 52.192 371.495 51.04C370.044 49.888 369.319 48.224 369.319 46.048C369.319 43.872 370.322 42.208 372.327 41.056C374.375 39.8613 378.386 38.7093 384.359 37.6V33.76C384.359 29.152 382.631 26.848 379.175 26.848C377.98 26.848 376.85 27.1467 375.783 27.744V32.096C375.783 32.3093 375.207 32.5227 374.055 32.736C372.946 32.9493 372.199 33.056 371.815 33.056C371.474 33.056 371.132 33.0133 370.791 32.928C370.45 32.5867 370.279 31.8187 370.279 30.624C370.279 29.4293 370.62 28.448 371.303 27.68C371.943 26.8267 373.479 25.952 375.911 25.056C378.343 24.16 380.242 23.712 381.607 23.712C386.983 23.712 389.671 26.7413 389.671 32.8V45.6C389.671 46.9653 389.927 47.84 390.439 48.224C390.994 48.608 391.676 48.8 392.487 48.8Z" fill="currentColor"/>
<path d="M420.34 24.48L424.755 24.288L425.267 26.656H425.012C423.774 26.8267 422.857 27.168 422.259 27.68C421.705 28.1493 421.171 29.0453 420.659 30.368L407.732 61.088C405.812 65.056 404.019 67.488 402.355 68.384C401.459 68.8533 400.286 69.088 398.836 69.088C397.428 69.088 396.297 68.7253 395.444 68C395.444 67.4027 395.721 66.5067 396.276 65.312C396.83 64.16 397.193 63.584 397.363 63.584C398.003 63.712 399.027 63.776 400.435 63.776C401.886 63.776 403.358 62.496 404.852 59.936C406.345 57.376 407.604 54.6667 408.628 51.808L399.411 30.88C398.601 29.088 397.897 27.936 397.299 27.424C396.745 26.8693 395.806 26.592 394.483 26.592L393.908 24.224C396.126 24.3947 398.579 24.48 401.267 24.48C403.955 24.48 406.409 24.3947 408.628 24.224L409.139 26.528H408.883C406.025 26.5707 404.595 27.0827 404.595 28.064C404.595 28.448 404.723 28.896 404.979 29.408L411.315 45.344L417.908 29.28C418.164 28.6827 418.292 28.2773 418.292 28.064C418.292 27.2107 417.182 26.7627 414.964 26.72L414.388 24.288L420.34 24.48Z" fill="currentColor"/>
<path d="M434.526 52L427.613 52.192L427.102 49.632C429.15 49.4613 430.366 49.2907 430.75 49.12C431.176 48.9067 431.389 48.352 431.389 47.456V12.256C431.389 10.848 431.133 9.88799 430.621 9.37599C430.152 8.86399 429.491 8.60799 428.638 8.60799C427.827 8.60799 427.272 8.62932 426.974 8.67199L426.397 6.75199C429.683 5.77065 432.776 4.63999 435.677 3.35999C436.445 3.35999 436.829 3.76532 436.829 4.57598V47.456C436.829 48.224 437.043 48.7573 437.47 49.056C437.896 49.312 438.856 49.504 440.349 49.632L440.926 52.192L434.526 52Z" fill="currentColor"/>
<path d="M452.361 52L445.448 52.192L444.936 49.632C446.984 49.4613 448.201 49.2907 448.585 49.12C449.011 48.9067 449.224 48.352 449.224 47.456V31.2C449.224 29.0667 448.158 28 446.025 28C445.513 28 445.107 28.0213 444.809 28.064L444.232 26.208C447.006 25.5253 448.776 25.0347 449.544 24.736L453.448 23.2C454.003 23.2 454.345 23.264 454.473 23.392C454.601 23.4773 454.664 23.7547 454.664 24.224V47.456C454.664 48.224 454.857 48.7573 455.241 49.056C455.625 49.312 456.563 49.504 458.056 49.632L458.633 52.192L452.361 52ZM451.977 15.648C450.91 15.648 450.014 15.328 449.288 14.688C448.606 14.0053 448.264 13.1307 448.264 12.064C448.264 10.9973 448.627 10.08 449.353 9.31199C450.078 8.54398 450.974 8.15998 452.04 8.15998C453.15 8.15998 454.046 8.47999 454.728 9.11999C455.454 9.75999 455.816 10.6347 455.816 11.744C455.816 12.8107 455.432 13.728 454.664 14.496C453.939 15.264 453.043 15.648 451.977 15.648Z" fill="currentColor"/>
<path d="M473.607 49.888C477.105 49.888 478.854 48.48 478.854 45.664C478.854 44.4693 478.321 43.488 477.254 42.72C476.23 41.9093 474.972 41.248 473.478 40.736C472.028 40.1813 470.556 39.584 469.062 38.944C467.569 38.304 466.289 37.344 465.223 36.064C464.199 34.784 463.686 33.0773 463.686 30.944C463.686 28.768 464.625 27.0187 466.503 25.696C468.423 24.3307 470.705 23.648 473.35 23.648C475.996 23.648 478.876 24.1387 481.991 25.12C482.417 25.376 482.63 26.3147 482.63 27.936C482.63 29.5573 482.502 31.008 482.246 32.288L479.686 32.032C479.473 30.3253 478.812 28.96 477.702 27.936C476.593 26.8693 475.228 26.336 473.607 26.336C472.028 26.336 470.769 26.6773 469.831 27.36C468.935 28.0427 468.487 28.9387 468.487 30.048C468.487 31.1573 468.998 32.096 470.022 32.864C471.089 33.632 472.369 34.272 473.862 34.784C475.356 35.2533 476.849 35.7867 478.342 36.384C479.878 36.9387 481.158 37.8773 482.182 39.2C483.249 40.5227 483.783 42.3147 483.783 44.576C483.783 46.8373 482.844 48.7787 480.966 50.4C479.132 51.9787 476.764 52.768 473.862 52.768C470.961 52.768 467.783 52.128 464.327 50.848C464.113 50.72 463.921 49.7387 463.75 47.904C463.58 46.0693 463.495 44.576 463.495 43.424V43.104L466.503 42.848C467.185 47.5413 469.553 49.888 473.607 49.888Z" fill="currentColor"/>
<path d="M496.236 42.976C496.236 45.024 496.598 46.6027 497.323 47.712C498.049 48.7787 499.03 49.312 500.267 49.312C501.547 49.312 502.721 48.9707 503.788 48.288C503.958 48.2027 504.129 48.2453 504.299 48.416L505.452 50.144C503.105 51.8933 500.673 52.768 498.155 52.768C495.681 52.768 493.825 52 492.587 50.464C491.393 48.8853 490.796 47.0293 490.796 44.896V28.832C490.796 28.32 490.71 28 490.539 27.872C490.411 27.744 490.22 27.68 489.964 27.68H487.724L487.147 25.824C488.939 25.2693 490.39 24.3733 491.5 23.136C492.652 21.8987 493.761 20.2347 494.827 18.144H495.531C495.83 18.144 495.979 18.272 495.979 18.528L496.236 23.648C496.236 24.2027 496.513 24.48 497.068 24.48H504.363L504.939 27.68H496.939C496.513 27.68 496.299 28 496.299 28.64C496.299 28.6827 496.299 28.704 496.299 28.704V28.832L496.236 42.976Z" fill="currentColor"/>
<path d="M521.67 6.36798L529.542 6.55999C531.846 6.55999 533.403 6.49599 534.214 6.36798C534.641 7.56265 536.091 10.7627 538.566 15.968C541.083 21.1733 542.555 24.3307 542.982 25.44C543.451 26.5067 544.859 29.28 547.206 33.76C549.553 38.24 551.11 41.056 551.878 42.208C552.262 41.4827 553.563 38.56 555.782 33.44C558.043 28.32 559.345 25.3547 559.686 24.544C560.795 22.368 562.417 18.9547 564.55 14.304C566.726 9.61065 567.814 6.98665 567.814 6.43199C568.625 6.51732 569.606 6.55999 570.758 6.55999C571.953 6.55999 575.11 6.49599 580.23 6.36798L580.806 9.05599C576.753 9.31199 574.726 10.3573 574.726 12.192V46.88C574.726 47.776 575.046 48.3733 575.686 48.672C576.369 48.9707 577.883 49.2053 580.23 49.376L580.806 52.192C575.302 52.064 572.145 52 571.334 52L564.102 52.192L563.59 49.376C566.022 49.12 567.515 48.864 568.07 48.608C568.625 48.352 568.902 47.776 568.902 46.88V13.216L550.598 52L549.702 52.192L531.014 13.472V46.432C531.014 47.3707 531.355 48.0533 532.038 48.48C532.763 48.9067 534.257 49.2053 536.518 49.376L537.094 52.192L529.606 52L522.374 52.192L521.862 49.376C524.123 49.12 525.574 48.8213 526.214 48.48C526.854 48.096 527.174 47.4133 527.174 46.432V11.616C527.174 10.7627 526.854 10.1867 526.214 9.88799C525.617 9.54665 524.294 9.29065 522.246 9.11999L521.67 6.36798Z" fill="currentColor"/>
<path d="M595.87 49.184C598.046 49.184 599.667 48.4587 600.734 47.008V39.84C597.065 40.48 594.611 41.2053 593.374 42.016C592.137 42.784 591.518 43.8933 591.518 45.344C591.603 46.6667 592.051 47.648 592.862 48.288C593.673 48.8853 594.675 49.184 595.87 49.184ZM608.862 48.8H610.206C610.419 48.8 610.569 48.7787 610.654 48.736C610.825 49.8453 610.974 50.528 611.102 50.784C610.59 51.04 609.417 51.4453 607.582 52C605.79 52.512 604.467 52.768 603.614 52.768C602.761 52.768 602.163 52.4693 601.822 51.872C601.481 51.232 601.225 50.1227 601.054 48.544C600.329 49.568 599.241 50.5067 597.79 51.36C596.382 52.2133 594.953 52.6827 593.502 52.768H593.182C591.134 52.768 589.363 52.192 587.87 51.04C586.419 49.888 585.694 48.224 585.694 46.048C585.694 43.872 586.697 42.208 588.702 41.056C590.75 39.8613 594.761 38.7093 600.734 37.6V33.76C600.734 29.152 599.006 26.848 595.55 26.848C594.355 26.848 593.225 27.1467 592.158 27.744V32.096C592.158 32.3093 591.582 32.5227 590.43 32.736C589.321 32.9493 588.574 33.056 588.19 33.056C587.849 33.056 587.507 33.0133 587.166 32.928C586.825 32.5867 586.654 31.8187 586.654 30.624C586.654 29.4293 586.995 28.448 587.678 27.68C588.318 26.8267 589.854 25.952 592.286 25.056C594.718 24.16 596.617 23.712 597.982 23.712C603.358 23.712 606.046 26.7413 606.046 32.8V45.6C606.046 46.9653 606.302 47.84 606.814 48.224C607.369 48.608 608.051 48.8 608.862 48.8Z" fill="currentColor"/>
<path d="M614.954 28.384L613.995 28.448L613.418 26.592C616.405 25.8667 618.602 25.1413 620.01 24.416C621.418 23.6907 622.208 23.2853 622.378 23.2C622.933 23.2 623.253 23.2427 623.339 23.328C623.509 23.4987 623.637 24.864 623.722 27.424C625.77 26.1867 627.563 25.2693 629.099 24.672C630.677 24.032 632.384 23.712 634.219 23.712C640.149 23.712 643.115 26.8907 643.115 33.248V47.456C643.115 48.224 643.306 48.7573 643.69 49.056C644.074 49.312 645.013 49.504 646.506 49.632L647.083 52.192L640.81 52L633.898 52.192L633.386 49.632C635.434 49.4613 636.65 49.2907 637.034 49.12C637.461 48.9067 637.674 48.352 637.674 47.456V35.424C637.674 32.6933 637.141 30.7947 636.075 29.728C635.008 28.6613 633.322 28.128 631.018 28.128C628.714 28.128 626.325 28.7253 623.851 29.92V47.456C623.851 48.224 624.043 48.7573 624.427 49.056C624.811 49.312 625.749 49.504 627.242 49.632L627.818 52.192L621.547 52L614.634 52.192L614.122 49.632C616.17 49.4613 617.387 49.2907 617.771 49.12C618.197 48.9067 618.411 48.352 618.411 47.456V32.48C618.411 30.944 618.133 29.8773 617.578 29.28C617.024 28.6827 616.149 28.384 614.954 28.384Z" fill="currentColor"/>
<path d="M661.62 49.184C663.796 49.184 665.417 48.4587 666.484 47.008V39.84C662.815 40.48 660.361 41.2053 659.124 42.016C657.887 42.784 657.268 43.8933 657.268 45.344C657.353 46.6667 657.801 47.648 658.612 48.288C659.423 48.8853 660.425 49.184 661.62 49.184ZM674.612 48.8H675.956C676.169 48.8 676.319 48.7787 676.404 48.736C676.575 49.8453 676.724 50.528 676.852 50.784C676.34 51.04 675.167 51.4453 673.332 52C671.54 52.512 670.217 52.768 669.364 52.768C668.511 52.768 667.913 52.4693 667.572 51.872C667.231 51.232 666.975 50.1227 666.804 48.544C666.079 49.568 664.991 50.5067 663.54 51.36C662.132 52.2133 660.703 52.6827 659.252 52.768H658.932C656.884 52.768 655.113 52.192 653.62 51.04C652.169 49.888 651.444 48.224 651.444 46.048C651.444 43.872 652.447 42.208 654.452 41.056C656.5 39.8613 660.511 38.7093 666.484 37.6V33.76C666.484 29.152 664.756 26.848 661.3 26.848C660.105 26.848 658.975 27.1467 657.908 27.744V32.096C657.908 32.3093 657.332 32.5227 656.18 32.736C655.071 32.9493 654.324 33.056 653.94 33.056C653.599 33.056 653.257 33.0133 652.916 32.928C652.575 32.5867 652.404 31.8187 652.404 30.624C652.404 29.4293 652.745 28.448 653.428 27.68C654.068 26.8267 655.604 25.952 658.036 25.056C660.468 24.16 662.367 23.712 663.732 23.712C669.108 23.712 671.796 26.7413 671.796 32.8V45.6C671.796 46.9653 672.052 47.84 672.564 48.224C673.119 48.608 673.801 48.8 674.612 48.8Z" fill="currentColor"/>
<path d="M702.336 33.312C702.336 36.4693 701.27 39.008 699.136 40.928C697.003 42.8053 694.422 43.744 691.393 43.744C690.71 43.744 690.006 43.7227 689.281 43.68C688.598 43.5947 687.894 43.7653 687.169 44.192C686.443 44.6187 686.081 45.1307 686.081 45.728C686.081 46.752 686.955 47.52 688.704 48.032C689.728 48.288 691.798 48.5653 694.912 48.864C698.027 49.1627 700.182 49.568 701.377 50.08C703.979 51.1893 705.281 53.408 705.281 56.736C705.281 60.064 703.787 62.9653 700.8 65.44C697.856 67.9147 694.251 69.152 689.984 69.152C686.827 69.152 684.054 68.4267 681.664 66.976C679.275 65.568 678.081 63.392 678.081 60.448C678.081 59.0827 678.379 58.08 678.977 57.44C679.617 56.8427 680.278 56.2667 680.961 55.712C681.686 55.1573 682.518 54.5387 683.456 53.856C684.395 53.1733 684.95 52.768 685.12 52.64C684.054 52.2133 683.094 51.552 682.24 50.656C681.387 49.7173 680.961 48.8853 680.961 48.16C680.961 47.4347 681.131 46.9013 681.472 46.56C682.326 45.7067 683.904 44.4907 686.208 42.912C684.502 42.144 683.072 41.0133 681.92 39.52C680.768 38.0267 680.193 36.2773 680.193 34.272C680.193 31.2427 681.259 28.7253 683.393 26.72C685.526 24.7147 688.107 23.712 691.136 23.712C692.8 23.712 694.337 23.9253 695.745 24.352C697.622 24.736 699.499 24.928 701.377 24.928C703.254 24.928 705.003 24.8853 706.625 24.8C706.625 25.2267 706.539 25.9307 706.368 26.912C706.198 27.8507 705.963 28.512 705.664 28.896L700.8 28C701.824 29.5787 702.336 31.3493 702.336 33.312ZM691.584 65.952C694.016 65.952 696 65.2907 697.536 63.968C699.072 62.688 699.841 61.0667 699.841 59.104C699.841 57.1413 698.966 55.6907 697.216 54.752C695.467 53.856 692.736 53.408 689.024 53.408C688.043 53.408 687.211 53.6213 686.529 54.048C685.846 54.4747 685.334 54.816 684.992 55.072C684.651 55.328 684.267 55.8187 683.841 56.544C683.414 57.2693 683.201 58.1013 683.201 59.04C683.201 61.0027 683.99 62.6453 685.568 63.968C687.19 65.2907 689.195 65.952 691.584 65.952ZM691.776 40.928C695.574 40.928 697.472 38.752 697.472 34.4C697.472 31.968 696.897 30.0267 695.745 28.576C694.635 27.1253 693.099 26.4 691.136 26.4C689.174 26.4 687.659 26.9547 686.592 28.064C685.568 29.1733 685.057 30.8587 685.057 33.12C685.057 35.3813 685.697 37.2587 686.977 38.752C688.257 40.2027 689.856 40.928 691.776 40.928Z" fill="currentColor"/>
<path d="M734.691 36.448H716.131V37.28C716.131 40.3947 717.006 43.104 718.755 45.408C720.504 47.6693 722.83 48.8 725.731 48.8C728.632 48.8 731.022 47.8613 732.899 45.984C733.027 45.856 733.134 45.792 733.219 45.792C733.304 45.792 733.411 45.856 733.539 45.984L734.947 47.584C731.747 51.04 728.035 52.768 723.811 52.768C719.63 52.768 716.323 51.4453 713.891 48.8C711.502 46.1547 710.307 42.6347 710.307 38.24C710.307 33.8027 711.672 30.2827 714.403 27.68C717.134 25.0347 720.248 23.712 723.747 23.712C727.246 23.712 729.998 24.7787 732.003 26.912C734.008 29.0027 735.011 31.9467 735.011 35.744C735.011 36.2133 734.904 36.448 734.691 36.448ZM728.611 33.44C728.611 28.7467 726.798 26.4 723.171 26.4C721.251 26.4 719.694 27.0827 718.499 28.448C717.304 29.7707 716.579 31.4347 716.323 33.44H728.611Z" fill="currentColor"/>
<path d="M740.706 28.384L739.746 28.448L739.17 26.592C742.157 25.8667 744.354 25.1413 745.762 24.416C747.17 23.6907 747.959 23.2853 748.13 23.2C748.685 23.2 749.026 23.2427 749.154 23.328C749.197 23.4133 749.325 25.0347 749.538 28.192C752.055 25.2053 754.551 23.712 757.026 23.712C759.501 23.712 760.994 24.2027 761.506 25.184C761.506 26.1227 760.759 27.552 759.266 29.472C758.797 30.112 758.519 30.432 758.434 30.432L753.314 28.576H752.93C751.991 28.576 751.202 29.0453 750.562 29.984C749.922 30.9227 749.602 32.2453 749.602 33.952V47.456C749.602 48.224 749.922 48.7787 750.562 49.12C751.202 49.4613 752.525 49.632 754.53 49.632L755.106 52.192L747.682 52L740.386 52.192L739.874 49.632C741.922 49.4613 743.138 49.2907 743.522 49.12C743.949 48.9067 744.162 48.352 744.162 47.456V32.48C744.162 30.944 743.885 29.8773 743.33 29.28C742.775 28.6827 741.901 28.384 740.706 28.384Z" fill="currentColor"/>
<path d="M3 37.3669C4.74866 37.3669 15.9 37.3669 18.4122 37.3669C20.3433 37.3669 20.3433 34.4504 20.3433 32.7V19.5C20.3433 17.7496 21.038 16.0708 22.2745 14.8331C23.511 13.5954 25.188 12.9 26.9367 12.9C28.6853 12.9 30.3624 13.5954 31.5989 14.8331C32.8353 16.0708 33.53 17.7496 33.53 19.5V62.4C33.53 64.1504 34.2246 65.8292 35.4611 67.0669C36.6976 68.3046 38.3747 69 40.1233 69C41.872 69 43.549 68.3046 44.7855 67.0669C46.022 65.8292 46.7167 64.1504 46.7167 62.4V9.6C46.7167 7.84957 47.4113 6.17083 48.6478 4.93309C49.8843 3.69535 51.5613 3 53.31 3C55.0587 3 56.7357 3.69535 57.9722 4.93309C59.2087 6.17083 59.9033 7.84957 59.9033 9.6V52.5C59.9033 54.2504 60.598 55.9292 61.8345 57.1669C63.071 58.4046 64.748 59.1 66.4967 59.1C68.2453 59.1 69.9224 58.4046 71.1589 57.1669C72.3953 55.9292 73.09 54.2504 73.09 52.5V39.3C73.09 37.5496 72.5167 34.6331 75.0211 34.6331C77.5256 34.6331 87.2513 34.6331 89 34.6331" stroke="currentColor" stroke-width="5" stroke-linecap="round" stroke-linejoin="round"/>
</svg>
